<?xml version="1.0" encoding="utf-8"?>
<!-- Generator: Adobe Illustrator 23.0.3, SVG Export Plug-In . SVG Version: 6.00 Build 0)  -->
<svg version="1.1" id="Layer_1" xmlns="http://www.w3.org/2000/svg" xmlns:xlink="http://www.w3.org/1999/xlink" x="0px" y="0px"
	 viewBox="0 0 2360 1300" style="enable-background:new 0 0 2360 1300;" xml:space="preserve">
<style type="text/css">
	.st0{display:none;fill:#3D3D3D;}
	.st1{fill:#2F2F2F;}
	.st2{opacity:0.61;fill:#242424;enable-background:new    ;}
	.st3{fill:#3D3D3D;}
</style>
<g id="Capa_2">
	<path class="st0" d="M2305,1277.5H51.2c-6.6,0-12-5.4-12-12V54.8c0-6.6,5.4-12,12-12H2305c6.6,0,12,5.4,12,12v1210.7
		C2317,1272.1,2311.6,1277.5,2305,1277.5z"/>
	<path class="st1" d="M1207.8,1300c-0.9,0-1.8,0-2.7,0c-1-1.6-1.5-3.2-1.4-5.1c0.1-8.4-0.1-16.7,0.1-25.1c0.3-9.7,0.8-19.4,1.5-29.1
		c0.7-10.7,1.9-21.4,3.3-32.1c2.1-16.5,4.9-32.8,8.5-49c9.5-43.4,23.8-85.1,43.1-125.1c27.6-57.5,63.6-109.1,108-154.8
		c47.1-48.5,100.9-87.8,161.5-117.8c2.9-1.5,5.9-2.8,8.9-4.3c2.2-1.1,2.5-1.6,1.6-3.9c-1.4-3.6-1.2-7,0.3-10.4
		c1-2.1,2.3-3.9,3.8-5.7s3.1-3.4,4.9-4.9c4.6-4,9.6-7.4,14.7-10.4c13.5-8,28-14.2,42.8-19.5c21.6-7.7,43.7-13.4,66.3-17
		c17-2.7,34.1-4.1,51.4-3.7c12,0.3,23.9,1.3,35.5,4.3c4.6,1.2,9.2,2.7,13.4,5c2.3,1.2,4.4,2.6,6.1,4.5c1.6,1.6,2.9,3.5,3.3,5.8
		c0.3,1.7,1.4,2.2,2.7,2.6c0.8,0.3,1.8,0.2,2.7,0.2c9.1,0.3,18.2,0.5,27.3,1c12.1,0.7,24.1,1.8,36.2,3.2c18.3,2.2,36.4,5.2,54.3,9.1
		c20.6,4.4,40.9,10,60.9,16.7c6.4,2.1,4.3,2.6,9.9-3.7c2.5-2.8,4.8-5.8,7.1-8.8c4.5-5.7,10.6-8.1,17.7-8.4
		c5.4-0.3,10.7,0.3,16.1,1.3c14.9,2.6,29.1,7.7,43.1,13.5c23.9,10,46.5,22.5,68.3,36.4c26,16.7,50.4,35.4,72.5,57
		c14.4,14,27.7,28.9,39,45.5c5,7.3,9.5,14.8,13,23c2.1,5,3.8,10,4.3,15.5c0.4,5.1-0.5,9.7-3.6,14c-3.2,4.3-5.9,9-8.8,13.5
		c-0.5,0.8-1,1.5-0.2,2.4c3.4,3.8,6.2,8,9.2,12.1c41.3,58.1,71,121.7,88.9,190.6c5.7,22,10.1,44.3,13.1,66.8
		c1.2,9.2,2.2,18.4,3.1,27.6c0.4,4.2,0.4,67.1,0.4,67.1"/>
	
		<ellipse transform="matrix(0.5 -0.866 0.866 0.5 -224.5634 1749.7932)" class="st2" cx="1403.1" cy="1069.4" rx="125.4" ry="37.2"/>
	
		<ellipse transform="matrix(0.5506 -0.8348 0.8348 0.5506 254.2442 2135.6138)" class="st2" cx="2110.6" cy="831.7" rx="37.2" ry="130.6"/>
	
		<ellipse transform="matrix(0.9776 -0.2104 0.2104 0.9776 -117.0105 364.9731)" class="st2" cx="1656.7" cy="732.4" rx="97.1" ry="17.6"/>
	<ellipse class="st2" cx="1879.2" cy="1049.9" rx="24.9" ry="24.9"/>
	<ellipse class="st2" cx="2151.6" cy="1094.5" rx="108" ry="108"/>
	<circle class="st2" cx="1582.5" cy="1118.3" r="20.1"/>
	<circle class="st2" cx="1481.2" cy="1193.1" r="20.1"/>
	<circle class="st2" cx="1557.6" cy="1103.1" r="24.9"/>
	
		<ellipse transform="matrix(0.7071 -0.7071 0.7071 0.7071 -121.1108 1757.7139)" class="st2" cx="2061.2" cy="1025.1" rx="38.4" ry="38.4"/>
	<ellipse class="st2" cx="1854.2" cy="897.6" rx="24.9" ry="24.9"/>
</g>
<g id="Capa_1">
	<path class="st3" d="M2360.1,1253.5c-0.4,0.2-0.7,0.5-1.1,0.7c-1.7,1-3.4,0.6-3.9-1.1c-0.2-0.7-0.2-1.5-0.3-2.2
		c-0.6-7.2-1.1-14.3-1.6-21.5c-0.9-11.2-2.3-22.3-4-33.4c-3.5-22.9-8.4-45.5-14.6-67.9c-18.8-67-48.9-128.6-90-184.8
		c-0.8-1.1-1.6-2.2-2.4-3.2c-1.1-1.4-1.8-2.8-1-4.5c0.2-0.6,0.2-1.1-0.4-1.6c-2-1.7-1.2-3.4-0.1-5.1c2.7-4.1,5.1-8.5,8.1-12.4
		c3.5-4.5,3.7-9.3,2.7-14.5c-1-4.7-2.7-9.2-4.8-13.5c-2.8-6-6.1-11.6-9.8-17.1c-9.3-14-20.2-26.7-31.8-38.8
		c-26.5-27.3-56.5-50.2-88.9-70.1c-20.6-12.6-41.8-23.8-64.3-32.7c-10.2-4-20.5-7.5-31.2-9.8c-4.7-1-9.4-1.7-14.2-2.1
		c-1.8-0.2-3.6-0.1-5.4,0c-6,0.3-10.9,2.5-14.5,7.5c-3.5,4.8-7.6,9.3-11.4,13.9c-0.7,0.8-1.3,1.6-2,2.4c-1.9,1.9-3.8,1.9-4.9-0.6
		c-0.8-1.7-2.1-2-3.5-2.4c-11.2-3.8-22.5-7.2-33.9-10.2c-21.1-5.7-42.4-10.1-64-13.3c-11.5-1.7-23.1-3-34.7-4.1
		c-13.9-1.2-27.7-1.8-41.6-2.2c-0.9,0-1.8-0.1-2.7,0c-1.4,0.1-2,0.6-1.8,1.9c0.4,3.4,0.9,6.8,1.3,10.2c0.2,1.2,0.3,2.4,0.3,3.6
		c0,1.3-1.1,2.2-2.3,2.4c-1.2,0.1-2.5-0.6-2.8-1.8c-0.4-1.9-0.7-3.8-1-5.7c-0.5-3.5-1-7.1-1.5-10.7c-0.3-2.2-0.2-4.5-2.6-5.8
		c-0.2-0.1-0.4-0.5-0.4-0.8c-1.4-4-4.8-6-8.3-7.7c-6-2.9-12.4-4.4-18.9-5.5c-14.5-2.4-29.1-2.9-43.8-2.1c-38.9,2-76.2,11-112.2,25.5
		c-9.4,3.8-18.6,8.2-27.4,13.4c-5.2,3-10.1,6.4-14.6,10.4c-2,1.8-3.9,3.7-5.4,5.9c-0.9,1.2-1.6,2.5-2.1,4c-0.8,2.2-0.2,4.1,1.4,5.7
		c1.3,1.3,2.9,2.1,4.5,2.8c3.2,1.3,6.6,2.1,10,2.6c4.6,0.6,9.2,1,13.8,1.1c13.6,0.2,27.2-0.8,40.7-2.5c16.2-2,32.2-4.8,48.1-8.2
		c1.3-0.3,2.7-0.4,4-0.5c1.1,0,2,0.9,2.2,1.9c0.2,1.1-0.2,2.2-1.1,2.7c-0.8,0.4-1.7,0.7-2.5,0.9c-13.6,2.9-27.3,5.4-41,7.3
		c-9.6,1.4-19.3,2.5-29,3.1c-11.5,0.7-23,1-34.5-0.4c-4.6-0.6-9.1-1.6-13.4-3.3c-1.4-0.5-1.9-0.2-2,1.4c-0.2,2.2-0.5,4.5-1.1,6.6
		c-1.8,6.6-5.6,11.8-11.4,15.6c-0.7,0.5-1.5,0.9-2.4,1.2c-1.5,0.5-2.8,0-3.4-1.3c-0.5-1.1-0.3-2.3,0.8-3.2c0.9-0.7,2-1.3,3-2
		c4.8-3.5,7.6-8.3,8.6-14.2c0.1-0.6-0.5-1.2-1.1-1c-1.4,0.6-2.7,1.2-4.1,1.8c-21.8,10.6-42.9,22.5-63.2,35.8
		c-34.2,22.3-65.7,47.9-94.5,76.8c-64.1,64.6-110.9,140-139.7,226.5c-8.9,26.7-15.7,53.9-20.4,81.7c-2.8,16.4-4.9,32.8-6.3,49.3
		c-1.6,18.3-2.1,36.7-2.1,55.1c0,1.3,0.1,2.7,0.2,4c0.2,2-0.2,3.8-1.4,5.5c-0.9,0-1.8,0-2.7,0c-1-1.6-1.5-3.2-1.4-5.1
		c0.1-8.4-0.1-16.7,0.1-25.1c0.3-9.7,0.8-19.4,1.5-29.1c0.7-10.7,1.9-21.4,3.3-32.1c2.1-16.5,4.9-32.8,8.5-49
		c9.5-43.4,23.8-85.1,43.1-125.1c27.6-57.5,63.6-109.1,108-154.8c47.1-48.5,100.9-87.8,161.5-117.8c2.9-1.5,5.9-2.8,8.9-4.3
		c2.2-1.1,2.5-1.6,1.6-3.9c-1.4-3.6-1.2-7,0.3-10.4c0.8-1.8,1.9-3.4,3.1-4.9c2-2.5,4.2-4.6,6.6-6.6c4.3-3.6,8.8-6.6,13.6-9.5
		c13.5-8,28-14.2,42.8-19.5c21.6-7.7,43.7-13.4,66.3-17c17-2.7,34.1-4.1,51.4-3.7c12,0.3,23.9,1.3,35.5,4.3c4.6,1.2,9.2,2.7,13.4,5
		c2.3,1.2,4.4,2.6,6.1,4.5c1.6,1.6,2.9,3.5,3.3,5.8c0.3,1.7,1.4,2.2,2.7,2.6c0.8,0.3,1.8,0.2,2.7,0.2c9.1,0.3,18.2,0.5,27.3,1
		c12.1,0.7,24.1,1.8,36.2,3.2c18.3,2.2,36.4,5.2,54.3,9.1c20.6,4.4,40.9,10,60.9,16.7c6,2,4.6,2.5,8.8-2.5c2.6-3.1,5.3-6.1,7.7-9.4
		c4.5-6.2,10.8-8.7,18.2-9c5.4-0.3,10.7,0.3,16.1,1.3c14.9,2.6,29.1,7.7,43.1,13.5c23.9,10,46.5,22.5,68.3,36.4
		c26,16.7,50.4,35.4,72.5,57c14.4,14,27.7,28.9,39,45.5c5,7.3,9.5,14.8,13,23c2.1,5,3.8,10,4.3,15.5c0.4,5.1-0.5,9.7-3.6,14
		c-3.2,4.3-5.9,9-8.8,13.5c-0.5,0.8-1,1.5-0.2,2.4c3.4,3.8,6.2,8,9.2,12.1c41.3,58.1,71,121.7,88.9,190.6
		c5.7,22,10.1,44.3,13.1,66.8c1.2,9.2,2.2,18.4,3.1,27.6c0.4,4.2,0.3,8.4,0.4,12.5c0.1,1.8,0,3.6,0.8,5.2
		C2360.1,1251.1,2360.1,1252.3,2360.1,1253.5z"/>
	<path class="st1" d="M159.4,522.4c2.1-2,4.7-2.3,7.5-2.4c10.9-0.4,21.8-0.8,32.7-1.3c3.3-0.1,6.6-0.4,9.8-0.6
		c0.4,0,0.9-0.1,0.9-0.7c0-0.6-0.4-0.8-0.8-1c-1.1-0.5-2.2-0.9-3.3-1.3c-8.1-3.1-16.2-6.2-24.3-9.3c-1.1-0.4-2.2-0.9-3.2-1.5
		s-1.3-1.7-1-2.7c0.4-1.2,1.6-2.1,2.7-1.8c1.2,0.2,2.3,0.6,3.4,1c8.2,3.1,16.5,6.3,24.7,9.4c1.1,0.4,2.2,0.9,3.4,1.2
		c0.4,0.1,0.9,0,1.1-0.4c0.1-0.2,0-0.6-0.2-0.8c-0.8-0.9-1.7-1.7-2.6-2.5c-9.8-9-19.6-18-29.4-27c-1-0.9-2-1.8-2.9-2.8
		s-0.8-2.4-0.1-3.3c0.9-1.1,2.4-1.3,3.6-0.5c1.1,0.8,2.1,1.7,3.1,2.6c9.7,8.9,19.4,17.8,29,26.7c0.8,0.7,1.5,1.4,2.3,2.1
		c0.5,0.5,1.1,1.2,1.9,0.7c1-0.7,0.5-1.5,0.1-2.4c-0.5-1.1-0.9-2.2-1.4-3.3c-3.4-7.6-6.8-15.3-10.2-22.9c-0.5-1.1-1-2.2-1.3-3.3
		c-0.4-1.3,0.2-2.6,1.2-3.1c1.3-0.6,2.7-0.3,3.5,1c0.6,1,1.1,2.1,1.6,3.2c3.5,7.9,7.1,15.8,10.6,23.7c0.4,1,0.8,1.9,1.3,2.8
		c0.2,0.3,0.6,0.8,0.9,0.8c0.8,0,0.8-0.7,0.8-1.3c0-2.1-0.1-4.2-0.2-6.3c-0.5-12.2-1.1-24.5-1.6-36.7c-0.1-1.3-0.1-2.7,0-4
		s1.1-2.1,2.4-2.1c1.2,0,2.3,0.8,2.6,2c0.1,0.6,0.1,1.2,0.2,1.8c0.3,6.1,0.6,12.2,0.8,18.4c0.4,8.7,0.7,17.3,1.1,26
		c0,0.8-0.3,1.8,0.8,2.3c0.7,0.3,1.4-0.3,2-1.9c3.3-8.5,6.5-17,9.8-25.5c0.5-1.3,0.9-2.5,1.5-3.7c0.7-1.5,2-2.1,3.2-1.8
		c1.5,0.5,2.3,1.9,1.8,3.6c-0.3,1-0.7,2-1.1,2.9c-3.2,8.4-6.4,16.7-9.6,25.1c-0.4,1-0.7,2-1,3c0,0.2,0.2,0.6,0.4,0.7
		s0.6,0.1,0.8-0.1c1-0.9,1.9-1.9,2.8-2.9c8.8-9.6,17.6-19.2,26.4-28.7c1-1.1,2-2.2,3.1-3.2c1.2-1,2.6-0.9,3.6,0.2
		c0.8,0.9,1.1,2,0.4,2.9c-0.9,1.2-1.8,2.4-2.8,3.5c-9,9.8-18,19.6-27,29.4c-0.7,0.8-1.4,1.5-2.1,2.3c-0.4,0.5-0.8,1-0.4,1.6
		c0.5,0.8,1.2,0.7,2,0.4c4.1-1.8,8.2-3.6,12.3-5.4c5.1-2.2,10.1-4.5,15.1-6.7c1.1-0.5,2.1-1.1,3.4-1c1,0.1,1.7,0.4,2.2,1.3
		c0.5,1,0.4,2.1-0.3,2.9c-0.8,0.9-2,1.3-3.1,1.8c-8,3.6-16.1,7.2-24.2,10.8c-1.1,0.5-2.2,0.9-3.3,1.5c-0.3,0.2-0.8,0.6-0.8,1
		c0,0.9,0.7,0.8,1.3,0.8c4.2-0.1,8.4-0.2,12.5-0.4c10.3-0.4,20.6-0.9,30.9-1.4c1.2-0.1,2.4-0.1,3.6,0.1c1.2,0.1,2.1,1.3,2.1,2.5
		c0,1.3-0.8,2.3-2.1,2.5c-0.7,0.1-1.5,0.1-2.2,0.2c-13.7,0.6-27.5,1.2-41.2,1.8c-1.3,0.1-2.7,0.2-4,0.2c-0.5,0-0.8,0.4-0.9,0.8
		c0,0.4,0.2,1,0.5,1.2c1,0.6,2.2,1,3.3,1.4c7.9,3.1,15.9,6.1,23.8,9.2c1.1,0.4,2.2,0.8,3.3,1.3c1.8,0.8,2.5,2.1,1.9,3.5
		s-2,2-3.7,1.5c-1-0.3-2-0.7-2.9-1.1c-7.7-2.9-15.3-5.9-23-8.8c-1.1-0.4-2.2-0.9-3.4-1.3c-0.7-0.2-1.5-0.9-2.1-0.2
		c-0.8,1.1,0.5,1.5,1,2c10.2,9.4,20.5,18.8,30.7,28.2c1,0.9,2,1.8,2.9,2.8c1.1,1.2,1.1,2.6,0.2,3.6c-0.9,1.1-2.3,1.3-3.6,0.3
		c-1.1-0.8-2.1-1.7-3-2.6c-9.9-9.1-19.8-18.2-29.7-27.3c-0.8-0.7-1.5-1.4-2.3-2.1c-0.4-0.3-0.9-0.3-1.2,0s-0.5,0.8-0.4,1.2
		c0.3,1,0.8,1.9,1.2,2.9c3.6,8.1,7.2,16.1,10.7,24.2c0.5,1.2,1.1,2.5,1.4,3.8c0.4,1.5-0.4,2.8-1.7,3.2c-1.1,0.3-2.3-0.2-3-1.4
		c-0.6-1-1.1-2.1-1.6-3.2c-3.6-8.1-7.2-16.1-10.8-24.2c-0.4-1-0.9-1.9-1.4-2.8c-0.1-0.2-0.5-0.3-0.8-0.3c-0.4-0.1-0.6,0.1-0.6,0.5
		c0,1.3-0.1,2.7,0,4c0.6,13.3,1.1,26.6,1.7,39.9c0.1,1.2,0.1,2.4,0,3.6c-0.1,1.6-1.2,2.6-2.6,2.5c-1.4,0-2.4-1-2.6-2.5
		c-0.1-0.4-0.1-0.9-0.1-1.3c-0.3-6.4-0.6-12.8-0.8-19.3c-0.3-8.4-0.7-16.7-1-25.1c0-0.4,0-0.9-0.1-1.3c-0.1-0.5-0.3-0.9-0.8-0.9
		c-0.4,0-1,0.1-1.1,0.4c-0.6,1-1.1,2.1-1.5,3.2c-3.2,8.2-6.3,16.5-9.5,24.7c-0.4,1.1-0.9,2.2-1.4,3.3c-0.6,1.2-1.9,1.6-3.1,1.2
		c-1.3-0.5-2.1-1.8-1.7-3.2c0.3-1,0.7-2,1-3c3.2-8.4,6.4-16.7,9.6-25.1c0.4-1.1,0.8-2.3,1.1-3.4c0-0.2-0.3-0.4-0.5-0.6
		c-0.1-0.1-0.4-0.1-0.4,0c-0.9,0.8-1.7,1.7-2.5,2.5c-9.1,9.9-18.2,19.8-27.3,29.7c-0.9,1-1.8,2-2.8,2.9c-1.1,0.9-2.8,0.7-3.6-0.3
		c-0.8-0.9-0.9-2.2-0.1-3.3c0.8-1.1,1.7-2.1,2.6-3c9.1-9.9,18.2-19.8,27.3-29.7c0.8-0.9,1.5-1.8,2.3-2.8c0.1-0.2,0-0.6-0.1-0.8
		s-0.5-0.5-0.7-0.4c-1,0.3-2,0.5-2.9,0.9c-8.3,3.7-16.7,7.4-25,11.1c-1.1,0.5-2.2,1-3.3,1.3c-1.4,0.4-2.7-0.4-3.2-1.7
		c-0.4-1.1,0.1-2.4,1.2-3c1-0.6,2.1-1.1,3.2-1.6c7.9-3.5,15.8-7,23.8-10.6c1-0.4,1.9-0.9,2.9-1.3c0.6-0.3,1.1-0.7,1.1-1.3
		c-0.1-0.9-1-1-1.8-1c-6.1,0.2-12.3,0.4-18.4,0.7c-8.5,0.4-17,0.8-25.5,1.2c-1.7,0.1-3.3-0.1-4.6-1.3c-0.3-0.2-0.9-0.1-1.3-0.2
		C159.4,523.6,159.4,523,159.4,522.4z M228.6,533.2c6.6,0,12.3-5.6,12.3-12.3c0.1-6.6-5.5-12.4-12.2-12.4c-7,0-12.5,5.3-12.5,12.4
		C216.1,527.6,222,533.2,228.6,533.2z"/>
	<path class="st1" d="M358.9,159.2c0.1,1.2,1.3,1.5,1.7,2.5c0.8,1.7,0.4,3.7-0.9,4.8c-1.5,1.2-3.9,1.1-5.2-0.3
		c-1.2-1.2-1.5-3.4-0.5-4.9c0.6-0.8,1.5-1.4,2.2-2.1C357.2,159.2,358.1,159.2,358.9,159.2z"/>
	<path class="st1" d="M2093.5,239.2c-0.3-7.5-0.7-14.9-0.9-22.4c-0.1-2.4,1-3.9,2.7-3.9c1.5,0,2.5,1.3,2.7,3.5
		c0.1,0.7,0.1,1.5,0.1,2.2c0.4,10.3,0.8,20.6,1.2,30.9c0.2,4,0.4,8.1,0.6,12.1c0,0.7-0.1,1.6,0.8,1.8c1.2,0.3,1.4-0.8,1.8-1.6
		c0.5-1.1,0.9-2.2,1.3-3.3c3-7.8,6-15.6,9-23.4c0.4-1.1,0.9-2.2,1.4-3.3c0.6-1.1,1.8-1.5,3.1-1.2c1.1,0.3,1.9,1.5,1.7,2.8
		c-0.3,1.3-0.7,2.6-1.2,3.8c-3,8-6.1,15.9-9.2,23.8c-0.3,0.8-0.7,1.7-1,2.5c-0.3,0.7-0.8,1.6-0.1,2.1c1,0.8,1.5-0.5,2-1
		c9.5-10.3,19-20.7,28.5-31c0.9-1,1.8-2,2.8-2.9s2.3-0.8,3.3,0c0.9,0.7,1.2,2.2,0.6,3.3c-0.7,1.1-1.6,2.1-2.5,3.1
		c-8.7,9.5-17.4,18.9-26.1,28.4c-1,1.1-2,2.2-3,3.3c-0.5,0.6-1.1,1.2-0.5,1.9c0.6,0.7,1.4,0.4,2.1,0.1c3.6-1.5,7.1-3.1,10.7-4.7
		c5.5-2.4,10.9-4.9,16.4-7.3c1-0.4,1.9-0.9,2.9-1.1c1.2-0.3,2.5,0.4,2.9,1.5c0.4,1.1,0.1,2.5-1,3.2c-1,0.6-2.1,1.1-3.2,1.6
		c-8,3.6-16.1,7.2-24.2,10.8c-1.1,0.5-2.2,1-3.2,1.6c-0.2,0.1-0.3,0.5-0.3,0.7c-0.1,0.4,0.1,0.6,0.5,0.6c0.1,0,0.3,0.1,0.4,0.1
		c7.3-0.3,14.6-0.6,22-0.9c7.9-0.3,15.8-0.7,23.7-1.1c0.9,0,1.8-0.1,2.6,0.4c0.9,0.5,1.5,1.6,1.4,2.6s-0.6,1.8-1.6,2
		c-1.4,0.3-2.9,0.5-4.4,0.6c-10.3,0.4-20.6,0.8-30.9,1.2c-3.7,0.2-7.5,0.4-11.2,0.6c-0.6,0-1.2,0.1-1.8,0.2
		c-0.4,0.1-0.8,0.4-0.8,0.9c0,0.3,0.1,0.7,0.3,0.8c1.1,0.5,2.1,1,3.3,1.5c8.4,3.2,16.7,6.4,25.1,9.7c1.1,0.4,2.2,0.9,3.2,1.5
		s1.3,2,0.8,3.2c-0.4,1-1.4,1.6-2.5,1.4c-1.3-0.3-2.6-0.7-3.8-1.1c-8.4-3.2-16.7-6.5-25.1-9.6c-1.2-0.4-2.3-1.6-3.7-0.5
		c0.1,1.4,1.4,1.9,2.2,2.7c10.1,9.3,20.2,18.6,30.4,27.9c0.9,0.8,1.8,1.6,2.5,2.5c0.9,1.1,0.9,2.3,0.1,3.3s-2.4,1.3-3.6,0.5
		c-1-0.7-1.8-1.5-2.7-2.3c-9.8-9-19.6-18-29.4-27c-1-0.9-2-1.9-3-2.7c-0.3-0.2-0.9-0.2-1.2,0c-0.3,0.2-0.5,0.8-0.4,1.2
		c0.3,1.1,0.8,2.2,1.3,3.3c3.6,8.1,7.2,16.1,10.7,24.2c0.5,1.1,1,2.2,1.3,3.3c0.4,1.2-0.3,2.5-1.4,3c-1.1,0.5-2.6,0.2-3.2-0.8
		s-1.1-2.1-1.6-3.2c-3.5-7.9-7-15.8-10.6-23.7c-0.5-1.2-1.1-2.4-1.8-3.6c-0.1-0.2-0.4-0.4-0.7-0.4c-0.6,0-0.7,0.5-0.7,0.9
		c0.2,6.6,0.5,13.1,0.7,19.7c0.4,8.5,0.8,17,1.1,25.5c0,0.7,0,1.5-0.1,2.2c-0.2,1.2-1.3,2.2-2.4,2.3c-1.2,0.1-2.3-0.7-2.6-2
		c-0.2-0.7-0.2-1.5-0.3-2.2c-0.1-2.2-0.3-4.5-0.4-6.7c-0.4-10.9-0.8-21.8-1.3-32.7c-0.1-2.1-0.3-4.2-0.4-6.3c0-0.5-0.3-0.8-0.9-0.8
		c-0.5,0-0.9,0.1-1.1,0.6c-0.5,1.1-0.9,2.2-1.4,3.3c-3.2,8.2-6.3,16.4-9.5,24.7c-0.4,1.1-0.9,2.2-1.4,3.3c-0.6,1.1-1.9,1.5-3.1,1.1
		c-1.2-0.3-1.9-1.5-1.6-2.8c0.2-1.2,0.7-2.3,1.1-3.4c3.1-8.1,6.2-16.2,9.3-24.3c0.4-1.1,0.9-2.2,1.2-3.4c0.1-0.4,0-1-0.2-1.2
		c-0.3-0.3-0.8-0.1-1.1,0.2c-0.9,1-1.8,2-2.7,3c-8.9,9.7-17.8,19.4-26.7,29.1c-0.9,1-1.8,2-2.9,2.8c-0.9,0.8-2.4,0.6-3.3-0.3
		c-0.8-0.8-1.1-2.2-0.3-3.3c0.8-1.1,1.7-2.1,2.6-3.1c9.3-10.1,18.6-20.2,27.9-30.4c0.8-0.8,2.4-1.6,1.7-2.8c-1-1.5-2.4-0.2-3.6,0.3
		c-8.5,3.7-16.9,7.5-25.4,11.3c-1.1,0.5-2.2,1-3.3,1.3s-2.4-0.6-2.8-1.7c-0.3-1-0.1-2.3,0.8-2.8c1-0.6,2.1-1.2,3.2-1.7
		c8-3.6,16.1-7.2,24.2-10.8c1.2-0.5,2.4-1.2,3.6-1.8c0.2-0.1,0.3-0.5,0.3-0.8c-0.1-0.4-0.3-0.9-0.8-0.9c-1.2,0-2.4-0.1-3.6,0
		c-11,0.5-22.1,1-33.1,1.5c-3.3,0.1-6.6,0.3-9.9,0.3c-2,0-3.1-1.6-2.6-3.3c0.4-1.4,1.4-1.9,2.7-1.9c4.3-0.2,8.7-0.5,13-0.7
		c10.2-0.4,20.3-0.8,30.5-1.2c0.9,0,1.8-0.1,2.7-0.2c0.5,0,0.9-0.4,0.9-0.8c0-0.3-0.4-0.8-0.8-0.9c-1.2-0.6-2.5-1.1-3.7-1.6
		c-7.8-3-15.6-6-23.4-9c-1.1-0.4-2.3-0.8-3.3-1.3c-1.3-0.7-1.8-2.1-1.4-3.4c0.4-1.1,1.6-1.8,2.9-1.5c1.3,0.3,2.6,0.8,3.8,1.3
		c8,3,15.9,6.1,23.8,9.2c1.2,0.5,2.5,0.9,3.8,1.2c0.2,0.1,0.7-0.1,0.8-0.3c0.1-0.2,0-0.6-0.1-0.8c-0.7-0.8-1.5-1.5-2.2-2.2
		c-8.4-7.7-16.7-15.4-25.1-23.1c-2-1.8-4-3.6-5.9-5.5c-0.7-0.6-1.3-1.2-1.8-1.9c-0.7-1-0.5-2.5,0.4-3.3c0.7-0.7,2.1-1,2.9-0.5
		c1.1,0.7,2.1,1.6,3.1,2.5c10,9.2,20,18.4,30.1,27.6c0.8,0.7,1.5,1.4,2.3,2.1c0.3,0.3,0.8,0.5,1.2,0.2c0.5-0.4,0.7-0.9,0.5-1.6
		c-0.4-1.1-0.9-2.2-1.4-3.3c-3.6-8.1-7.2-16.1-10.7-24.2c-0.5-1.1-1-2.2-1.3-3.3c-0.3-0.9,0.5-2.2,1.3-2.6c1-0.6,2.6-0.4,3.2,0.6
		c0.7,1.1,1.3,2.3,1.8,3.6c3.6,8,7.2,16.1,10.8,24.2c0.5,1.1,1.1,2.1,1.7,3.2c0.1,0.2,0.5,0.2,0.8,0.2c0.2-0.1,0.4-0.4,0.5-0.6
		c0.1-0.3,0.1-0.6,0-0.9C2094.1,254.4,2093.8,246.8,2093.5,239.2L2093.5,239.2z M2110.1,281.2c-0.1-6.8-5.5-12.1-12.3-12.1
		c-6.8,0-12.2,5.4-12.2,12.2c0,7,5.6,12.4,12.6,12.3C2105,293.5,2110.3,288,2110.1,281.2z"/>
	<path class="st1" d="M1090.1,908.2c23.6,0,47.2,0,70.9,0c2.6,0,4.9,0.4,7.3,1.5c26,11.8,56.7-3,63-31.4c2.2-10,1.1-19.6-3.2-28.9
		c-1-2.2-1.5-4.4-1.5-6.9c0-23.8,0-47.5,0-71.3c0-1.3,0-2.7,0.2-4c0.2-1.4,1.7-2.4,2.9-2.2c1.2,0.2,2.1,1.1,2.2,2.5
		c0.1,1.5,0.1,3,0.1,4.5c0,22.6,0,45.1,0,67.7c0,3.2,0.5,6.1,1.8,9.1c11.9,28.5-3.7,60.6-33.5,68.6c-11.2,3-22.2,2.4-32.9-2.2
		c-2.8-1.2-5.6-1.7-8.7-1.7c-46,0-92.1,0-138.1,0c-1.6,0-3.3,0-4.9-0.1c-1.3-0.1-2.1-1.2-2.1-2.5s0.8-2.4,2-2.5
		c1.3-0.1,2.7-0.1,4-0.1C1043.2,908.2,1066.7,908.2,1090.1,908.2z"/>
	<path class="st1" d="M617.5,962.9c-0.3-9-2.4-17.4-7.2-25.1c-4.7-7.6-11.4-13-19.7-16.2c-6.2-2.4-12.6-3.6-19.3-3.7
		c-1.5,0-3-0.1-4.5-0.3c-1.2-0.2-2.1-1.4-2.2-2.5c0-1.3,1-2.4,2.5-2.6c0.6-0.1,1.2-0.1,1.8-0.1c2.2-0.2,4.5-0.3,6.7-0.5
		c5.5-0.5,10.9-1.7,16-3.9c11.3-4.7,18.7-13.1,22.8-24.5c2-5.7,3.2-11.5,3-17.6c0-1.3,0-2.7,0.2-4c0.2-1.5,1.4-2.4,2.8-2.3
		c1.3,0.1,2.1,0.8,2.4,2.3c0.2,1.2,0.3,2.4,0.2,3.6c-0.2,7.1,1.2,14,4,20.5c4.7,11.3,12.8,18.9,24.3,23c4.7,1.7,9.5,2.7,14.4,3
		c2.7,0.2,5.4,0.4,8,0.6c1.2,0.1,1.9,1,2,2.1c0.2,1.3-0.5,2.5-1.7,2.8c-1.1,0.3-2.4,0.3-3.5,0.4c-4.6,0.1-9.2,0.7-13.7,1.7
		c-17,4-27.6,14.7-32.1,31.5c-1.2,4.5-1.9,9.1-1.6,13.7c0.1,1.2-0.1,2.4-0.3,3.6c-0.2,1.3-1.3,2.2-2.4,2.3c-1.2,0.1-2.5-1-2.8-2.4
		c-0.1-0.6-0.2-1.2-0.2-1.8C617.5,965.3,617.5,964.1,617.5,962.9z M620.3,885c-0.3,0.2-0.6,0.4-0.7,0.6c-0.4,0.9-0.8,1.9-1.2,2.9
		c-4.9,11.7-13.4,19.9-25.1,24.8c-1,0.4-1.9,0.8-2.9,1.2c-0.2,0.1-0.5,0.4-0.4,0.6c0.1,0.3,0.3,0.5,0.5,0.7c0.9,0.4,1.9,0.8,2.9,1.2
		c11.6,4.8,19.9,12.9,24.9,24.4c0.4,1,0.8,1.9,1.2,2.9c0.1,0.3,0.3,0.5,0.5,0.7c0.3,0.3,0.5,0.3,0.7,0c0.4-0.7,0.7-1.3,1-2
		c5-12.8,14-21.6,26.8-26.6c0.7-0.3,1.4-0.6,2-1c0.4-0.3,0.4-0.7-0.1-1c-0.8-0.4-1.7-0.7-2.5-1c-12.3-4.9-21-13.4-26-25.7
		c-0.3-0.8-0.7-1.7-1.1-2.5C620.8,885.1,620.4,885.1,620.3,885z"/>
	<path class="st1" d="M1350.8,342.4c-0.1-8.2-1.8-16-5.7-23.3c-5.5-10.5-14.3-17-25.6-20.3c-5.5-1.6-11.1-2.1-16.8-2.5
		c-0.9-0.1-1.8,0-2.7-0.2c-1.3-0.2-2.1-1.2-2-2.5c0-1.2,0.9-2.3,2.1-2.5s2.4-0.2,3.6-0.2c4.7-0.1,9.2-0.7,13.7-1.8
		c16.6-4.1,27.1-14.5,31.6-30.9c1.3-4.6,2-9.3,1.9-14.2c0-1.3,0-2.7,0.2-4c0.2-1.1,1.1-1.7,2.2-1.9c1.1-0.1,2.5,0.8,2.7,1.9
		c0.2,1.3,0.3,2.7,0.2,4c-0.2,5.6,0.8,11,2.5,16.3c4.8,15.2,15.1,24.7,30.5,28.6c4.5,1.1,9.1,1.8,13.7,1.9c1.2,0,2.4,0,3.6,0.2
		c1.6,0.2,2.5,1.3,2.6,2.6c0,1.4-0.9,2.4-2.5,2.6c-3.1,0.3-6.3,0.4-9.4,0.7c-5.4,0.5-10.6,1.8-15.6,4c-11.4,4.9-18.7,13.6-22.6,25.2
		c-1.8,5.5-3,11.3-2.8,17.2c0,1.3,0,2.7-0.2,4c-0.2,1.2-1.4,1.9-2.7,1.8c-1.1-0.1-2.1-0.8-2.2-1.8C1351,345.7,1351,344,1350.8,342.4
		z M1384.2,293.8c-0.2-0.2-0.3-0.6-0.5-0.7c-0.5-0.3-1.1-0.5-1.6-0.7c-1.5-0.7-3-1.2-4.5-2c-9-4.4-15.9-11-20.4-20
		c-0.9-1.9-1.7-3.8-2.6-5.7c-0.2-0.4-0.5-0.8-0.9-0.9c-0.5-0.2-0.8,0.3-0.9,0.7c-0.6,1.4-1.1,2.8-1.8,4.1
		c-4.9,10.6-12.8,18.2-23.5,22.8c-0.8,0.4-1.7,0.7-2.5,1c-0.7,0.3-1.7,0.4-1.8,1.2c-0.1,1,1,0.8,1.6,1.1c0.9,0.5,1.9,0.8,2.9,1.2
		c10.7,4.6,18.6,12.3,23.4,22.9c0.6,1.4,1.2,2.7,1.8,4.1c0.1,0.2,0.4,0.5,0.6,0.5s0.6-0.1,0.7-0.3c0.5-0.9,0.8-1.9,1.3-2.9
		c5.1-11.8,13.6-20.2,25.5-24.9c0.8-0.3,1.7-0.6,2.5-1C1383.8,294.3,1384,294,1384.2,293.8z"/>
	<path class="st1" d="M883.5,633.9c0.3,0.1,1,0.2,1.4,0.6c1,0.7,1.9,1.4,2.9,2.1c61.7,48.3,123.3,96.6,185,144.9
		c1.1,0.8,2.2,1.6,3.1,2.6c1.2,1.3,0.7,3.4-0.9,4.1c-0.7,0.3-1.5,0.4-2.1-0.1c-1.2-0.8-2.5-1.7-3.6-2.6
		c-52.3-40.9-104.5-81.8-156.8-122.7c-9.3-7.3-18.6-14.6-27.9-21.8c-1.1-0.8-2.1-1.7-3.1-2.6c-0.8-0.8-0.8-1.9-0.4-2.9
		C881.6,634.5,882.3,634.1,883.5,633.9z"/>
	<path class="st1" d="M243.1,1036.5c0.4-2.5,0.9-5.6,1.4-8.7c0.1-0.7,0.3-1.5,0.4-2.2c0.4-1.6-0.1-2.9-1.3-4c-2.2-2-4.3-4.2-6.4-6.2
		c-0.5-0.5-1.1-1-1.6-1.6c-2.1-2.4-1.5-4.6,1.6-5.1c3.7-0.7,7.4-1.2,11.1-1.7c1.6-0.2,2.7-0.9,3.4-2.4c1.3-2.8,2.7-5.6,4.2-8.4
		c0.5-0.9,0.9-1.9,1.5-2.7c1-1.4,3.2-1.4,4.2,0c0.5,0.7,0.9,1.5,1.3,2.3c1.3,2.7,2.7,5.3,3.9,8c0.9,2,2.1,3,4.3,3.2
		c2.8,0.2,5.6,0.7,8.4,1.2c1,0.2,2.1,0.3,3.1,0.6c1.7,0.5,2.4,2.5,1.4,4c-0.5,0.7-1.2,1.3-1.8,2c-2.4,2.4-4.9,4.8-7.3,7.2
		c-0.9,0.9-1.3,1.9-1,3.2c0.7,3.5,1.2,7.1,1.8,10.6c0.1,0.6,0.3,1.2,0.3,1.8c0,1.8-1.5,3.1-3.3,2.6c-1-0.3-2-0.7-2.9-1.2
		c-2.9-1.5-5.8-3-8.7-4.6c-1.2-0.6-2.2-0.7-3.4,0c-2.6,1.4-5.3,2.8-7.9,4.2c-0.9,0.5-1.8,1-2.8,1.4
		C244.6,1040.9,243,1039.7,243.1,1036.5z"/>
	<path class="st1" d="M1720.7,239.8c0.8-0.1,1.5,0.3,2,0.9c0.6,0.8,1.1,1.8,1.6,2.7c1.4,2.8,2.9,5.6,4.2,8.4
		c0.7,1.5,1.6,2.4,3.3,2.6c3.3,0.4,6.5,1,9.7,1.5c0.7,0.1,1.5,0.1,2.2,0.4c2.2,0.6,2.8,2.8,1.4,4.6c-0.6,0.8-1.4,1.5-2.2,2.2
		c-2,2-4,4-6.1,5.9c-1.3,1.2-1.8,2.5-1.4,4.4c0.7,3.2,1.1,6.5,1.7,9.7c0.1,0.6,0.3,1.2,0.3,1.8c0.1,2.3-1.7,3.7-3.8,2.9
		c-0.8-0.3-1.6-0.8-2.4-1.2c-2.4-1.2-4.9-2.3-7.1-3.8c-2.3-1.5-4.4-1.3-6.6,0.1c-2.4,1.5-5,2.7-7.5,4c-1.4,0.7-2.9,1.9-4.5,0.5
		c-1.4-1.1-1-2.7-0.8-4.2c0.5-3,0.9-5.9,1.5-8.8c0.5-2.4,0.2-4.3-1.8-6c-2.3-1.9-4.3-4.1-6.4-6.2c-0.5-0.5-1.1-1-1.5-1.6
		c-1.2-1.6-0.6-3.7,1.4-4.3c0.7-0.2,1.5-0.3,2.2-0.4c3-0.4,5.9-0.9,8.9-1.2c2.3-0.2,3.8-1.2,4.7-3.4c1.2-2.9,2.7-5.6,4.1-8.5
		c0.3-0.7,0.7-1.3,1.1-1.9C1719.2,240.1,1719.8,239.8,1720.7,239.8z"/>
	<path class="st1" d="M1187.5,834.5c16.6-0.4,34.1,13.1,34,34.3c-0.1,20.6-17,34.1-34.3,34.1c-17.2-0.1-34.1-13.5-34-34.4
		C1153.3,847.1,1171,834,1187.5,834.5z"/>
	<path class="st1" d="M1187.6,839.9c-13.5-0.4-28.8,10.3-29,28.5c-0.1,17,13.5,28.9,28.6,29s28.8-11.6,29-28.6
		C1216.2,850.9,1201.3,839.6,1187.6,839.9z"/>
	<path class="st1" d="M1165.6,825.3c-0.1,1.3-0.4,2.1-1.3,2.6s-2.2,0.5-2.9-0.3c-1-1.1-1.9-2.3-2.7-3.6c-19.5-28.6-39-57.3-58.5-86
		c-13.7-20.1-27.4-40.3-41.1-60.4c-0.8-1.2-1.7-2.5-2.4-3.8c-0.6-1.1-0.1-2.6,0.9-3.2c1-0.6,2.6-0.6,3.3,0.3c0.9,1,1.6,2.1,2.4,3.2
		c15.6,22.8,31.1,45.7,46.7,68.5c17.7,25.9,35.3,51.9,53,77.8c0.7,1,1.4,2,2,3C1165.2,824.2,1165.3,825,1165.6,825.3z"/>
	<path class="st1" d="M728.1,512.6c0.8,0,1.5,0.1,2.1,0.6c1,0.7,1.9,1.5,2.8,2.2c45.4,35.6,90.8,71.1,136.2,106.7
		c1.1,0.8,2.1,1.7,3,2.7c0.7,0.8,0.6,2-0.1,2.9c-0.7,0.9-1.8,1.3-2.8,1c-1.3-0.4-2.3-1.4-3.3-2.2c-10.1-7.9-20.2-15.8-30.4-23.8
		c-35.4-27.7-70.8-55.4-106.2-83.2c-0.9-0.7-1.9-1.5-2.8-2.3c-0.6-0.5-0.9-1.2-0.9-2C725.6,513.8,726.7,512.6,728.1,512.6z"/>
	<path class="st1" d="M807.4,664.6c0.3,0.1,0.8,0.2,1.4,0.4c1.1,0.5,2.1,1.1,3.2,1.7c40,22.1,80,44.1,120.1,66.2
		c1.2,0.6,2.4,1.3,3.5,2c1.2,0.9,1.5,2.4,0.7,3.6c-0.6,1-1.9,1.5-3.2,1c-1.4-0.6-2.7-1.3-4-2c-39.9-22-79.8-44-119.7-66
		c-1.2-0.6-2.3-1.3-3.5-2c-1-0.6-1.2-1.7-1-2.8C805,665.6,806.1,664.7,807.4,664.6z"/>
	<path class="st1" d="M1031.6,509c1,0,1.8,0.4,2.3,1.2c0.5,0.9,1,1.8,1.4,2.8c18.3,39.9,36.5,79.8,54.8,119.8c0.5,1.1,1,2.2,1.3,3.3
		c0.3,0.9-0.4,2.2-1.2,2.7c-1,0.6-2.7,0.4-3.3-0.5c-0.8-1.3-1.5-2.6-2.1-4c-7.4-16.2-14.8-32.3-22.2-48.5
		c-10.7-23.4-21.4-46.7-32-70.1c-0.6-1.2-1.1-2.4-1.5-3.7C1028.7,510.5,1030,509.1,1031.6,509z"/>
	<path class="st1" d="M1065.6,808.3c0,1.5-1.6,2.9-3,2.5c-1.3-0.4-2.5-1.1-3.6-1.7c-13.7-7.6-27.5-15.2-41.2-22.7
		c-22.8-12.6-45.5-25.1-68.3-37.7c-1.2-0.6-2.4-1.3-3.5-2.1s-1.4-2.1-0.8-3.2c0.6-1.1,1.8-1.7,3-1.3c1.3,0.4,2.5,1.1,3.6,1.7
		c15.8,8.7,31.7,17.4,47.5,26.2c20.5,11.3,41.1,22.7,61.6,34c1.2,0.6,2.4,1.3,3.5,2C1065.2,806.6,1065.6,807.3,1065.6,808.3z"/>
	<path class="st1" d="M683.6,358c0.6,0,1.3,0.2,1.8,0.8c0.9,0.8,1.7,1.7,2.6,2.5c21.7,21.6,43.3,43.3,65,64.9
		c8.5,8.4,16.9,16.9,25.4,25.3c0.8,0.8,1.7,1.7,2.5,2.6c0.9,1.2,0.7,2.7-0.3,3.6s-2.2,1-3.3,0.1c-0.8-0.6-1.6-1.4-2.3-2.1
		c-6-6-12.1-12-18.1-18c-24.2-24.2-48.4-48.3-72.6-72.5c-1.1-1.1-2.2-2.1-3-3.3C680.1,360.2,681.5,358,683.6,358z"/>
	<path class="st1" d="M891.7,566c0,1.4-1.3,2.5-2.7,2.4c-0.8-0.1-1.4-0.3-2-0.9c-0.9-0.8-1.7-1.7-2.6-2.5c-15-15-30-30-45.1-45
		c-13.2-13.2-26.5-26.4-39.7-39.6c-1-0.9-1.9-1.9-2.8-2.9c-1-1.2-0.8-2.7,0.2-3.7c1-0.9,2.5-1,3.6,0.1c3.3,3.1,6.4,6.2,9.6,9.4
		c4.5,4.4,8.9,8.9,13.3,13.3c21.5,21.4,42.9,42.9,64.4,64.3c1,0.9,1.9,1.9,2.8,2.9C891.5,564.5,891.7,565.2,891.7,566z"/>
	<path class="st1" d="M976.6,548.6c0.5,0,1.2,0.4,1.7,1c0.7,0.9,1.4,1.9,2.1,2.9c21.3,31.2,42.5,62.5,63.8,93.7c0.7,1,1.4,2,1.9,3
		c0.8,1.4,0.5,2.8-0.6,3.6c-1.2,0.9-2.7,0.6-3.9-0.8c-0.6-0.7-1-1.5-1.5-2.2c-21.5-31.6-43-63.2-64.6-94.8c-0.7-1-1.3-2-1.8-3.1
		C973.1,550.3,974.6,548.5,976.6,548.6z"/>
	<path class="st1" d="M1075,748.6c-0.1,1.9-1.7,3.1-3.2,2.5c-0.7-0.2-1.3-0.7-1.9-1.2c-1.4-1.3-2.8-2.7-4.2-4
		c-21.8-21.7-43.5-43.4-65.3-65.2c-0.8-0.8-1.7-1.7-2.5-2.6c-0.8-1.1-0.6-2.9,0.4-3.7c0.9-0.7,2.4-0.8,3.4,0
		c0.8,0.6,1.5,1.4,2.3,2.2c11.3,11.3,22.6,22.5,33.9,33.8s22.6,22.5,33.9,33.8c0.8,0.8,1.7,1.7,2.5,2.6
		C1074.8,747.5,1074.8,748.2,1075,748.6z"/>
	<path class="st1" d="M885.8,1203c0-0.6,0-1.2,0-1.8c0.2-2-0.5-3.4-2.2-4.5c-1.4-0.8-2.7-1.8-4-2.9c-2-1.7-1.6-3.9,0.8-4.9
		c1.8-0.7,3.7-1.2,5.5-1.8c1.2-0.4,2-1.1,2.4-2.4c0.5-1.9,1.1-3.7,1.8-5.5c0.9-2.4,3.2-2.7,4.9-0.8c0.9,1,1.7,2.1,2.3,3.3
		c1.3,2.4,3.2,3.3,5.9,3c1.3-0.2,2.7-0.1,4,0c2.5,0.2,3.6,2.3,2.2,4.5c-0.9,1.5-2,2.9-3.2,4.3c-1.1,1.3-1.3,2.6-0.7,4.1
		c0.7,1.7,1.2,3.4,1.7,5.1c0.7,2.5-0.9,4.1-3.4,3.5c-1.9-0.5-3.7-1.2-5.5-1.8c-1.2-0.4-2.3-0.3-3.3,0.5c-1.3,1-2.6,2-4,2.9
		c-0.6,0.4-1.3,0.8-2,1c-1.4,0.4-2.8-0.5-3.1-1.8c-0.2-0.7-0.2-1.5-0.2-2.2C885.7,1204.2,885.7,1203.6,885.8,1203
		C885.7,1203,885.8,1203,885.8,1203z"/>
	<path class="st1" d="M149.1,794.6c0.5-1.4,1-3.2,1.7-5c0.6-1.6,0.4-2.9-0.7-4.1c-0.8-0.9-1.5-1.9-2.2-2.9c-0.4-0.6-0.9-1.2-1.2-1.9
		c-0.9-1.9,0.1-3.7,2.2-3.9c0.9-0.1,1.8-0.1,2.7-0.1c6.6-0.1,4.7,0.8,8.6-4.6c0.4-0.6,0.8-1.2,1.3-1.8c1.5-1.7,3.8-1.4,4.7,0.7
		c0.7,1.8,1.3,3.7,1.8,5.5c0.4,1.4,1.3,2.3,2.7,2.7c1.9,0.5,3.7,1.1,5.5,1.8c2.1,0.9,2.4,3.2,0.7,4.7c-1.4,1.2-2.8,2.2-4.3,3.2
		c-1.6,1-2.2,2.3-2,4.1c0.1,1.3,0.1,2.7,0.1,4c0,1.4,0,2.8-1.4,3.5c-1.5,0.8-2.9,0.1-4.1-0.9c-1.1-0.8-2.2-1.5-3.2-2.4
		c-1.4-1.2-2.9-1.3-4.6-0.6c-1.7,0.6-3.4,1.2-5.1,1.6C150.2,798.6,148.8,797.2,149.1,794.6z"/>
	<path class="st1" d="M454.9,634.7c0.1,0.9-0.3,1.7-0.9,2.4c-1,1.3-1.9,2.7-2.9,3.9c-0.9,1.2-1.2,2.3-0.7,3.7
		c0.4,1.1,0.8,2.3,1.1,3.4c0.2,0.7,0.5,1.4,0.6,2.1c0.4,2.4-1,3.9-3.3,3.3c-1.6-0.4-3.2-0.8-4.7-1.5c-2.1-1-3.7-0.5-5.3,0.9
		c-0.8,0.7-1.7,1.3-2.5,1.9c-0.5,0.3-1,0.7-1.5,1c-2.1,1.1-4,0-4.1-2.3c-0.1-1.9-0.1-3.9,0-5.8c0-1.3-0.4-2.3-1.5-3
		c-1.6-1.1-3.2-2.2-4.7-3.4c-2-1.7-1.6-3.9,0.7-4.9c1.7-0.7,3.4-1.3,5.1-1.7s2.5-1.4,3-3c0.5-1.7,1-3.5,1.7-5.1
		c1-2.4,3.2-2.7,4.9-0.7c0.7,0.8,1.2,1.7,1.9,2.5c2.7,3.8,2.1,3.7,6.9,3.6c1.3,0,2.7,0,4,0.1C453.9,632.4,454.9,633.5,454.9,634.7z"
		/>
	<path class="st1" d="M1431.1,501.2c0-0.4-0.1-0.9,0-1.3c0.4-2.6-0.7-4.2-2.9-5.5c-1-0.6-2-1.3-2.9-2.1c-2.5-2-2.2-4.3,0.7-5.4
		c1.2-0.5,2.5-0.9,3.8-1.2c2.3-0.5,3.7-1.6,4.1-4c0.2-1,0.6-2,0.9-3c0.5-1.4,0.8-3,2.6-3.3c2-0.4,2.9,1.2,3.8,2.5
		c0.6,0.8,1.3,1.6,1.8,2.6c1.1,1.9,2.5,2.7,4.7,2.5c1.5-0.2,3-0.1,4.5,0c2.9,0.2,3.8,2.1,2.3,4.6c-0.5,0.9-1.2,1.7-1.8,2.5
		c-3,4-2.5,3.2-1.1,7.7c0.2,0.6,0.4,1.1,0.6,1.7c0.4,1.4,1,2.9-0.2,4.2c-1.2,1.3-2.7,0.8-4.2,0.3c-1.4-0.5-2.9-0.9-4.2-1.4
		c-1.2-0.5-2.3-0.3-3.3,0.5c-1.5,1.2-3.1,2.4-4.7,3.4c-2.2,1.4-4.3,0.4-4.5-2.1C1431,503.3,1431,502.2,1431.1,501.2
		C1431,501.2,1431.1,501.2,1431.1,501.2z"/>
	<path class="st1" d="M1977,429c0.6,0,1.2-0.1,1.8,0c2,0.2,3.4-0.5,4.5-2.2c0.9-1.4,1.8-2.7,2.9-4c1.8-2.2,4.1-1.8,5.1,0.9
		c0.6,1.5,1.1,3.1,1.4,4.7c0.4,1.8,1.6,2.8,3.3,3.2c1.3,0.3,2.6,0.8,3.9,1.2c0.6,0.2,1.1,0.4,1.6,0.7c1.6,1,1.9,2.8,0.6,4.2
		c-0.6,0.6-1.4,1.1-2.1,1.7c-5.1,3.8-4.8,2.2-4.6,9c0,0.9,0,1.8-0.1,2.7c-0.3,1.8-2.1,2.8-3.7,1.8c-1.8-1.1-3.5-2.4-5.1-3.6
		c-1.2-0.9-2.3-1.1-3.7-0.5c-1.6,0.7-3.4,1.2-5.1,1.7c-2.7,0.7-4.3-1-3.6-3.8c0.2-0.9,0.5-1.7,0.8-2.6c1.8-5.3,2-3.7-1.4-8.4
		c-0.5-0.7-1.1-1.4-1.6-2.2c-1.5-2.4-0.5-4.4,2.5-4.5C1975.2,428.9,1976.1,429,1977,429L1977,429z"/>
	<path class="st1" d="M1932.5,587.6c0,1.2,0.1,2.4,0,3.6c-0.2,1.9-1.9,2.8-3.6,2.1c-0.5-0.2-1-0.6-1.5-0.9c-1-0.7-2-1.4-2.9-2.1
		c-1.6-1.4-3.3-1.9-5.3-0.9c-0.9,0.5-2,0.7-3,1c-0.7,0.2-1.4,0.4-2.2,0.5c-2,0.2-3.5-1.3-3-3.4c0.5-2,1.2-4,1.9-5.9
		c0.4-1.1,0.2-2-0.4-2.9c-1.2-1.7-2.6-3.3-3.7-5.1c-1.2-1.9-0.3-4,2-4.3c1.2-0.1,2.4,0,3.6,0c5.1,0,4.2,0.3,6.9-3.4
		c0.6-0.8,1.2-1.7,1.8-2.5c1.8-2.2,4.2-1.9,5.2,0.7c0.6,1.5,1,3.1,1.5,4.7c0.5,1.7,1.3,2.9,3.2,3.3c1.3,0.2,2.6,0.8,3.8,1.2
		c1.4,0.5,2.9,1,3.2,2.7c0.2,1.6-0.9,2.4-2,3.2s-2.1,1.6-3.3,2.3c-1.7,1-2.5,2.4-2.3,4.4C1932.5,586.4,1932.5,587,1932.5,587.6
		L1932.5,587.6z"/>
	<path class="st1" d="M1140.8,744c0.1,1.4-0.7,2.5-1.6,2.9c-1,0.4-2.3,0.2-2.9-0.6c-0.7-1.1-1.3-2.3-1.9-3.5
		c-7.9-17.2-15.8-34.5-23.7-51.8c-3.9-8.6-7.8-17.1-11.7-25.7c-0.5-1.1-1-2.2-1.4-3.3c-0.4-1.2,0.2-2.5,1.3-3
		c1.1-0.5,2.6-0.3,3.3,0.7c0.6,1,1.2,2.1,1.7,3.2c3.3,7.2,6.6,14.4,9.9,21.6c8.5,18.6,17,37.2,25.5,55.8
		C1139.8,741.6,1140.3,743,1140.8,744z"/>
	<path class="st1" d="M1036.8,267.7c0.1,1.5-0.7,2.7-2,3c-1.2,0.3-2.4,0.3-3.5,0.5c-7.5,0.8-11.8,5.3-12.4,12.8
		c-0.1,0.9,0,1.8-0.2,2.7c-0.3,1.5-1.5,2.5-2.8,2.4c-1.1-0.1-2.1-1-2.3-2.4c-0.2-1.2-0.2-2.4-0.4-3.6c-1.1-7.2-5.1-11.2-12.3-11.9
		c-0.9-0.1-1.8-0.1-2.7-0.2c-1.8-0.3-3-1.5-2.9-2.8c0-1.2,1.1-2.3,2.7-2.5c1-0.2,2.1-0.2,3.1-0.3c7-0.8,11-4.7,12.1-11.7
		c0.2-1.3,0.3-2.7,0.5-4s1.3-2.2,2.5-2.2s2.3,0.9,2.6,2.1c0.2,1,0.2,2.1,0.3,3.1c0.7,7.3,4.9,11.8,12.2,12.6c1.3,0.2,2.7,0.3,4,0.6
		C1036.2,266,1036.8,266.9,1036.8,267.7z M1021.7,267.8c-0.5-0.4-1.1-0.9-1.6-1.4c-1.3-1.2-2.5-2.5-3.8-3.7
		c-1.9,0.7-2.6,2.6-4.1,3.8c-2,1.6-2.1,1.9,0,3.4c1.6,1.1,1.9,3.7,4.5,3.6c1.6-1.6,3.2-3.1,4.7-4.7
		C1021.5,268.6,1021.5,268.2,1021.7,267.8z"/>
	<path class="st1" d="M376.7,832.5c-1.8,0-4,0.7-6,2.1c-1.2,0.8-2.3,1.8-3.6,2.7c-0.6,0.4-1.2,0.8-1.9,1.1c-1,0.3-2.2-0.2-2.7-1
		s-0.6-1.7-0.1-2.5c0.3-0.5,0.7-1,1-1.4c0.6-0.8,1.3-1.6,1.9-2.4c3.8-5.4,3.7-10.9-0.2-16.1c-0.8-1.1-1.8-2-2.6-3.1
		c-0.8-1-0.6-2.4,0.2-3.3c0.8-0.8,2.3-1,3.3-0.4c0.7,0.5,1.4,1.2,2,1.7c6.1,5.1,12,5.2,18.2,0.4c0.8-0.6,1.6-1.4,2.4-2
		c1.2-0.8,2.9-0.6,3.6,0.4c0.7,0.9,0.8,2.2,0,3.3c-0.7,1-1.5,1.8-2.3,2.8c-4.4,5.8-4.3,11.4,0.2,17.2c0.7,0.9,1.6,1.8,2.3,2.7
		c0.6,0.9,0.6,2-0.2,2.9c-0.7,0.9-2.2,1.3-3.2,0.7s-1.9-1.5-2.8-2.2C383.4,833.5,380.6,832.5,376.7,832.5z M377.4,827
		c0.9,0.1,1.8,0.2,2.7,0.3c0.9,0.1,1.4-0.3,1.4-1.2c0-0.7,0-1.5-0.1-2.2c0-1.5,0.4-3.3-0.3-4.3c-1-1.5-3,0-4.5-0.4
		c-0.7-0.2-1.5-0.2-2.2-0.2s-1.1,0.3-1.1,1c0,2.1,0,4.1,0,6.2c0,0.9,0.6,1.2,1.5,1.1C375.7,827.1,376.6,827.1,377.4,827z"/>
	<path class="st1" d="M1058.3,847.1c0.7,0.1,1.8,0.4,3,0.7c25.1,5.8,50.2,11.6,75.4,17.4c1.2,0.3,2.3,0.5,3.5,0.9
		c1.7,0.6,2.4,1.9,1.9,3.5c-0.4,1.3-1.6,1.9-3.3,1.6c-0.6-0.1-1.2-0.3-1.7-0.4c-25.7-5.9-51.4-11.8-77.1-17.8c-1-0.2-2.1-0.4-3-0.7
		c-1.5-0.5-2.2-1.6-2-3.1C1055.1,847.8,1056.2,847,1058.3,847.1z"/>
	<path class="st1" d="M1190.6,819.5c0,1.7-0.8,2.8-2,3c-1.1,0.3-2.4-0.3-2.9-1.5c-0.5-1.4-0.9-2.8-1.2-4.3c-4-16.2-8-32.4-11.9-48.6
		c-2.2-8.8-4.3-17.7-6.5-26.5c-0.2-0.9-0.4-1.7-0.5-2.6c-0.1-1,0.8-2,1.8-2.3c1.2-0.4,2.6,0.1,3.1,1.2c0.4,0.9,0.7,2,1,3
		c6.2,25.3,12.5,50.7,18.7,76C1190.3,817.9,1190.5,818.9,1190.6,819.5z"/>
	<path class="st1" d="M1157,830.4c-0.1,1.5-1.2,2.5-2.5,2.5c-0.9,0-1.8-0.3-2.4-0.9c-0.8-0.7-1.5-1.5-2.2-2.2
		c-18.2-18.1-36.3-36.2-54.5-54.4c-0.9-0.9-1.9-1.9-2.8-2.9c-1-1.2-0.9-2.7,0.1-3.6c1-0.9,2.4-1,3.7,0c0.7,0.6,1.3,1.2,1.9,1.8
		c18.7,18.6,37.4,37.3,56.1,55.9c0.7,0.7,1.5,1.5,2.1,2.3C1156.8,829.5,1156.8,830.1,1157,830.4z"/>
	<path class="st1" d="M1030.7,846.2c-0.5-0.1-1.4-0.3-2.3-0.5c-24.1-5.6-48.3-11.1-72.4-16.7c-1.2-0.3-2.3-0.6-3.4-1
		c-1.2-0.4-1.7-1.7-1.5-2.9c0.3-1.2,1.3-2.1,2.6-2c1,0.1,2.1,0.3,3.1,0.5c24.2,5.5,48.3,11.1,72.5,16.6c1,0.2,2,0.5,3,0.8
		c1.5,0.5,2.2,1.8,1.9,3.1C1033.8,845.6,1032.7,846.3,1030.7,846.2z"/>
	<path class="st1" d="M1149.2,837.4c0.1,2.2-1.7,3.6-3.3,2.9c-0.9-0.4-1.8-1-2.7-1.6c-20.5-14.7-41-29.3-61.5-44
		c-0.7-0.5-1.5-1-2.1-1.7c-0.9-0.9-1-2.3-0.4-3.3s2-1.5,3.1-0.9c1.2,0.6,2.3,1.4,3.4,2.1c9.6,6.8,19.2,13.7,28.7,20.6
		c10.3,7.4,20.6,14.8,30.9,22.2c1,0.7,1.9,1.4,2.9,2.2C1149,836.3,1149.2,837.1,1149.2,837.4z"/>
	<path class="st1" d="M664,462.3c0.8,0,1.5,0.2,2.1,0.7c0.8,0.6,1.7,1.3,2.5,1.9c15.9,12.4,31.8,24.9,47.6,37.3
		c1.2,0.9,2.4,1.8,3.4,2.9c0.9,0.9,0.9,2.3,0.1,3.3c-0.8,1-2.1,1.3-3.2,0.7c-0.9-0.5-1.8-1.1-2.6-1.8
		c-16.5-12.9-32.9-25.8-49.4-38.7c-0.9-0.7-1.8-1.5-2.6-2.4c-0.6-0.7-0.6-1.7-0.1-2.5C662.3,462.8,663,462.4,664,462.3z"/>
	<path class="st1" d="M1213,825c0.1,1.3,0.4,2.7,0.4,4c0,1.5-1,2.7-2.3,2.8c-1.4,0.2-2.5-0.6-2.9-2.2c-0.2-0.7-0.3-1.5-0.4-2.2
		c-1-9.6-1.9-19.3-2.8-28.9c-1.1-11-2.1-22-3.2-32.9c-0.1-0.9-0.2-1.8-0.2-2.7c0.1-1.5,1.1-2.6,2.5-2.6c1.3-0.1,2.2,0.6,2.6,2
		c0.3,1,0.4,2,0.5,3.1c1,10.4,2,20.8,3,31.2C1211.1,806,1212.1,815.5,1213,825L1213,825z"/>
	<path class="st1" d="M1143.7,851.2c0.1,1.7-1.6,3.2-3.2,2.7c-1-0.3-1.9-0.8-2.8-1.3c-17.5-9.7-35-19.3-52.6-29
		c-0.9-0.5-1.9-1-2.6-1.7c-0.8-0.8-0.9-1.9-0.5-2.9c0.4-0.9,1.5-1.5,2.6-1.4c1.2,0.1,2.2,0.8,3.3,1.4c5.8,3.2,11.5,6.3,17.3,9.5
		c11.4,6.3,22.7,12.5,34.1,18.8c1.2,0.6,2.3,1.3,3.5,2.1C1143.3,849.7,1143.7,850.4,1143.7,851.2z"/>
	<path class="st1" d="M1232,717.5c0,9.1,0,18.2,0,27.3c0,1.3-0.1,2.7-0.3,4c-0.1,1-0.9,1.5-1.8,1.7c-1.1,0.1-2.1-0.1-2.7-1.2
		c-0.3-0.5-0.5-1.1-0.5-1.7c-0.1-1.2-0.1-2.4-0.1-3.6c0-17.6,0-35.2,0-52.8c0-1.5,0-3,0.3-4.4c0.2-1.1,1-1.8,2.2-1.9
		c1.3-0.2,2.5,0.5,2.7,1.8s0.2,2.7,0.2,4C1232.1,699.5,1232,708.5,1232,717.5z"/>
	<path class="st1" d="M1165.5,717.4c0,1.9-0.7,3-1.9,3.2c-1.2,0.3-2.4-0.3-3-1.5c-0.4-0.8-0.6-1.7-0.8-2.6
		c-4.3-17.5-8.7-35.1-13-52.6c-0.2-1-0.4-2.1-0.4-3.1c0-1.1,0.8-2,1.9-2.2s2.2,0,2.7,1c0.6,1.3,1.1,2.8,1.4,4.2
		c2.2,8.7,4.3,17.4,6.4,26.1c2,8,3.9,16,5.8,23.9C1165.1,715.3,1165.3,716.6,1165.5,717.4z"/>
	<path class="st1" d="M1176.7,822.6c-0.2,1.4-0.7,2.2-1.8,2.7c-0.9,0.4-2.2,0.2-2.8-0.7c-0.5-0.7-0.9-1.5-1.3-2.3
		c-7.4-16.1-14.8-32.2-22.2-48.4c-0.3-0.7-0.6-1.4-0.8-2.1c-0.3-1.2,0.3-2.3,1.4-3c1-0.6,2.4-0.3,3.2,0.8c0.5,0.7,0.9,1.5,1.3,2.3
		c7.3,16,14.6,32,22,48C1176.1,820.9,1176.3,821.9,1176.7,822.6z"/>
	<path class="st1" d="M618.7,293.1c0,2-1.9,3.2-3.6,2.6c-1.2-0.4-1.9-1.4-2.8-2.2c-5.7-5.7-11.4-11.4-17.1-17.1
		c-5.6-5.6-11.2-11.2-16.8-16.8c-0.7-0.7-1.5-1.5-2.2-2.3c-1.1-1.3-1.1-2.6-0.1-3.6c1.1-1.2,2.5-1.2,4,0c0.6,0.5,1.1,1,1.6,1.5
		c11.4,11.4,22.8,22.7,34.2,34.1c0.7,0.7,1.5,1.5,2.1,2.3C618.5,292.2,618.6,292.9,618.7,293.1z"/>
	<path class="st1" d="M1204.8,741.6c0,1.3,0.1,2.3,0,3.4c-0.1,1.1-1,1.9-2,2.1c-1.1,0.1-2.1-0.2-2.6-1.2c-0.3-0.6-0.5-1.4-0.6-2.1
		c-0.9-9-1.8-18.1-2.7-27.1c-0.7-7.3-1.4-14.5-2.1-21.8c-0.1-0.9-0.2-1.8-0.2-2.7c0.1-1.3,0.9-2.3,2.1-2.5c1.3-0.2,2.6,0.6,3,2.1
		c0.2,0.7,0.3,1.5,0.4,2.2c1.3,13.2,2.5,26.4,3.8,39.6C1204.3,736.2,1204.6,739,1204.8,741.6z"/>
	<path class="st1" d="M753.8,635.2c1.4,0,2.5,0.8,3.7,1.5c8.2,4.5,16.4,9.1,24.7,13.6c5,2.7,9.9,5.5,14.9,8.2c0.9,0.5,1.8,1,2.6,1.7
		c0.9,0.7,0.9,2.3,0.3,3.3c-0.6,0.8-1.7,1.3-2.8,1c-0.7-0.2-1.4-0.5-2-0.9c-13.7-7.5-27.4-15.1-41.1-22.7c-0.8-0.4-1.5-0.9-2.2-1.6
		c-0.7-0.7-0.8-1.6-0.5-2.5C751.8,635.8,752.8,635.2,753.8,635.2z"/>
	<path class="st1" d="M937.9,492.2c0.8,0.1,1.4,0.4,1.9,1c0.7,0.8,1.3,1.7,1.9,2.5c8.2,12,16.3,23.9,24.4,35.9
		c0.5,0.7,1,1.5,1.4,2.3c0.7,1.4,0.3,2.9-0.8,3.5c-1.2,0.7-2.6,0.4-3.6-0.7c-0.5-0.6-0.9-1.2-1.3-1.8c-8.3-12.2-16.6-24.4-25-36.7
		c-0.6-0.9-1.2-1.8-1.5-2.7C934.7,494,936.3,492,937.9,492.2z"/>
	<path class="st1" d="M444.5,449.7c-5.9-0.1-10.8-4.9-10.9-10.9c-0.1-6.1,5.1-11.2,11.1-11.1c5.9,0.1,10.8,5,10.9,10.9
		C455.7,444.7,450.6,449.7,444.5,449.7z M444.8,433.2c-3.1-0.1-5.8,2.5-5.8,5.5c0,2.8,2.6,5.4,5.4,5.5c2.9,0.1,5.8-2.6,5.8-5.6
		C450.2,435.8,447.7,433.3,444.8,433.2z"/>
	<path class="st1" d="M336.3,251.6c5.9,0,10.8,4.9,10.9,10.8c0.1,6.1-5,11.2-11.1,11.1c-5.9-0.1-10.8-5-10.9-10.9
		C325.1,256.6,330.1,251.6,336.3,251.6z M336.1,268.1c2.9,0,5.5-2.3,5.6-5.2c0.2-2.9-2.5-5.8-5.5-5.9s-5.7,2.7-5.6,5.7
		C330.7,265.7,333.1,268,336.1,268.1z"/>
	<path class="st1" d="M597.3,419.1c-6.1,0.1-11.3-4.9-11.2-11c0-5.9,4.9-10.9,10.8-11c6-0.1,11.2,5,11.2,11.1
		C608.1,414.1,603.3,419,597.3,419.1z M597.1,413.7c3,0,5.7-2.9,5.6-5.8c-0.2-2.9-2.8-5.3-5.6-5.3s-5.4,2.5-5.6,5.4
		C591.4,410.9,594.2,413.8,597.1,413.7z"/>
	<path class="st1" d="M1105.3,484.1c0.3,4.8-3.3,10.8-10.7,10.9c-7.3,0.2-11.2-5.8-11.1-11c0.1-6.2,4.9-10.9,11.2-11
		C1099.5,473.1,1105.6,477.2,1105.3,484.1z M1094.3,489.6c3.2,0,5.6-2.4,5.6-5.6c-0.1-2.9-2.5-5.4-5.4-5.4c-3,0-5.7,2.6-5.6,5.7
		C1089.1,487.2,1091.5,489.5,1094.3,489.6z"/>
	<path class="st1" d="M683.2,246.3c6-0.1,10.9,4.6,11.1,10.6c0.2,6.2-4.6,11.3-10.8,11.4c-6.1,0.1-11.2-4.9-11.2-11
		C672.5,251.2,677.2,246.4,683.2,246.3z M683.5,262.7c2.9,0,5.4-2.4,5.5-5.3c0.1-2.9-2.7-5.8-5.6-5.7c-3,0-5.5,2.8-5.4,5.9
		C678.1,260.5,680.4,262.7,683.5,262.7z"/>
	<path class="st1" d="M428.1,1214.5c-0.1-6,4.6-11,10.5-11.1c6.2-0.2,11.3,4.6,11.4,10.8c0.1,6-5,11.2-11.1,11.2
		C433.1,1225.3,428.2,1220.5,428.1,1214.5z M439.1,1219.8c3,0,5.4-2.3,5.5-5.3c0.1-3.1-2.5-5.8-5.5-5.8c-2.8,0-5.4,2.5-5.5,5.4
		C433.4,1217.1,436,1219.8,439.1,1219.8z"/>
	<path class="st1" d="M839.1,760.2c-6.2,0-11-4.8-11-11.1c0.1-6,4.9-10.8,10.9-10.8c6.3,0,11,4.7,11,11.1
		C850.1,755.4,845.1,760.1,839.1,760.2z M839.1,743.8c-3.1,0-5.7,2.6-5.6,5.7c0.1,2.9,2.7,5.3,5.5,5.3c3.1,0,5.6-2.6,5.5-5.7
		C844.4,746.1,842.1,743.8,839.1,743.8z"/>
	<path class="st1" d="M1561.8,552.3c0-6.2,4.9-11.1,11.1-11c5.9,0.1,10.9,5,10.8,10.9c-0.2,6.8-5.2,11-11.2,11
		C1566.6,563.3,1561.8,558.4,1561.8,552.3z M1578.3,552.3c0-3.1-2.7-5.7-5.7-5.5c-2.8,0.2-5.3,2.8-5.3,5.6c0,3.1,2.7,5.6,5.8,5.5
		C1576,557.7,1578.3,555.3,1578.3,552.3z"/>
	<path class="st1" d="M803.8,1035.4c0.3,5.3-4.5,11.2-11.1,11c-6-0.2-10.9-4.9-10.8-10.8c0.1-6.4,5-11.1,11.1-11
		C799,1024.7,803.7,1029.4,803.8,1035.4z M792.9,1041c2.9,0,5.4-2.5,5.5-5.4c0.1-3-2.5-5.7-5.6-5.6c-3.2,0-5.5,2.6-5.4,5.8
		C787.5,1038.7,790,1041.1,792.9,1041z"/>
	<path class="st1" d="M2151.5,482.1c6.2-0.1,11.2,4.7,11.2,10.9c0,6-4.7,10.8-10.7,10.9c-6.2,0.1-11.2-4.8-11.2-10.9
		C2140.6,487,2145.5,482.2,2151.5,482.1z M2151.8,487.5c-2.9,0-5.4,2.4-5.6,5.3c-0.2,3.1,2.3,5.7,5.5,5.8c3.1,0,5.7-2.6,5.6-5.7
		C2157.1,490,2154.5,487.5,2151.8,487.5z"/>
	<path class="st1" d="M899.3,436.2c0.8,0,1.5,0.1,2.1,0.6c0.5,0.5,1,1.1,1.4,1.7c8.1,11.9,16.3,23.9,24.4,35.8
		c0.5,0.7,1,1.5,1.3,2.3c0.5,1.2-0.1,2.6-1,3.1c-1.1,0.6-2.4,0.5-3.3-0.5c-0.7-0.8-1.3-1.6-1.9-2.5c-7.8-11.5-15.6-22.9-23.4-34.4
		c-0.7-1.1-1.7-2.1-1.8-3.5C897,437.6,897.9,436.3,899.3,436.2z"/>
	<path class="st1" d="M879,805.8c0.7,0.1,1.8,0.3,2.8,0.5c12.8,2.9,25.5,5.9,38.3,8.8c0.9,0.2,1.7,0.4,2.6,0.8
		c1.3,0.5,1.9,1.9,1.4,3.3c-0.4,1.1-1.5,1.8-2.8,1.7c-0.6-0.1-1.2-0.2-1.7-0.4c-13.4-3.1-26.7-6.2-40.1-9.2
		c-0.6-0.1-1.2-0.2-1.7-0.4c-1.5-0.5-2.2-1.6-2-3.1C875.9,806.5,877,805.7,879,805.8z"/>
	<path class="st1" d="M940.9,614.7c-0.1,2-2.1,3.3-3.6,2.5c-0.8-0.4-1.5-1-2.1-1.6c-2-2-4-4-6-6c-6.3-6.3-12.7-12.6-19-18.9
		c-0.8-0.8-1.7-1.7-2.4-2.6c-0.9-1.2-0.8-2.6,0.3-3.6c1-0.9,2.1-1,3.3-0.1c0.8,0.6,1.6,1.3,2.3,2.1c8.2,8.2,16.4,16.4,24.7,24.7
		c0.7,0.7,1.5,1.5,2.1,2.3C940.8,613.9,940.8,614.5,940.9,614.7z"/>
	<path class="st1" d="M986.2,660.3c0,1.7-1.9,3-3.5,2.2c-0.8-0.4-1.5-1-2.1-1.6c-8.6-8.5-17.1-17-25.6-25.5c-0.5-0.5-1-1.1-1.4-1.7
		c-0.8-1.1-0.6-2.3,0.2-3.3c0.9-1,2.1-1.2,3.2-0.4c0.7,0.5,1.4,1.1,2,1.7c8.4,8.4,16.8,16.8,25.3,25.2
		C985.3,657.9,986.3,658.8,986.2,660.3z"/>
	<path class="st1" d="M1142.8,624.8c0,1.7-0.8,2.7-2,3.1c-1.1,0.3-2.5-0.3-3-1.4c-0.4-1-0.7-2-0.9-3c-2.9-11.7-5.7-23.4-8.6-35.1
		c-0.2-1-0.5-2-0.5-3.1c-0.1-1.2,1-2.3,2.1-2.5c0.9-0.2,2.2,0.4,2.6,1.3c0.4,0.9,0.8,1.9,1,2.9c3,12,5.9,24,8.8,36
		C1142.6,623.7,1142.7,624.5,1142.8,624.8z"/>
	<path class="st1" d="M1115.8,883.2c6.3,0.3,12.5,0.5,18.8,0.8c0.7,0,1.5,0.1,2.2,0.3c1.2,0.3,1.8,1.6,1.7,2.8c-0.1,1.1-0.9,2-2,2.1
		c-0.9,0.1-1.8,0.1-2.7,0.1c-11.8-0.5-23.5-0.9-35.3-1.4c-1,0-2.1-0.1-3.1-0.3c-1.3-0.2-2.1-1.3-2.1-2.5s0.9-2.5,2-2.6
		c1.5-0.1,3-0.1,4.5-0.1C1105.3,882.6,1110.6,882.9,1115.8,883.2C1115.8,883.3,1115.8,883.2,1115.8,883.2z"/>
	<path class="st1" d="M669.5,343.9c0.1,1.9-1.4,3.1-3,2.8c-1.1-0.2-1.8-0.9-2.6-1.7c-2.6-2.6-5.3-5.3-7.9-7.9
		c-5.4-5.4-10.7-10.7-16.1-16.1c-0.8-0.8-1.6-1.7-2.3-2.7c-0.6-0.9-0.4-2,0.3-2.9c0.9-1,2.2-1.3,3.2-0.6c0.7,0.5,1.4,1.1,2,1.7
		c8,8,16,16,24.1,23.9c0.6,0.6,1.3,1.3,1.8,2C669.4,343,669.5,343.6,669.5,343.9z"/>
	<path class="st1" d="M1063.6,886.6c-5.7-0.3-11.3-0.5-17-0.8c-0.7,0-1.5-0.1-2.2-0.3c-0.9-0.2-1.7-1.4-1.7-2.4
		c0-1.2,0.9-2.3,2.1-2.5c0.7-0.1,1.5-0.1,2.2-0.1c11.2,0.4,22.3,0.9,33.5,1.4c0.9,0,1.8,0.1,2.7,0.3c1.3,0.3,2.2,1.3,2.2,2.5
		c0,1.1-0.9,2.4-2.1,2.6c-1.2,0.2-2.4,0.1-3.6,0.1C1074.3,887.2,1069,886.9,1063.6,886.6C1063.6,886.5,1063.6,886.5,1063.6,886.6z"
		/>
	<path class="st1" d="M529.5,204.2c-0.1,1.9-1.7,2.9-3.3,2.5c-0.9-0.2-1.6-0.8-2.2-1.5c-5.7-5.7-11.4-11.4-17.1-17.1
		c-0.4-0.4-0.8-0.9-1.1-1.4c-0.7-1.1-0.5-2.3,0.4-3.2s2.1-1,3.3-0.3c0.5,0.3,1,0.7,1.4,1.1c5.6,5.6,11.2,11.1,16.8,16.7
		c0.4,0.4,0.9,0.8,1.2,1.3C529.2,203.1,529.4,203.8,529.5,204.2z"/>
	<path class="st1" d="M1190.5,651.6c0-1.7-0.1-2.5,0-3.2c0.1-1,1.1-1.9,2.1-2c1.1-0.1,2.2,0.4,2.6,1.4c0.3,0.7,0.4,1.4,0.5,2.2
		c0.8,8.2,1.7,16.3,2.5,24.5c0.1,0.7,0.1,1.5-0.1,2.2c-0.2,1-1.1,1.8-2.2,1.9c-1.3,0.2-2.4-0.5-2.8-1.7c-0.2-0.7-0.3-1.5-0.4-2.2
		C1192,666.7,1191.2,658.6,1190.5,651.6z"/>
	<path class="st1" d="M1274.1,737.3c-0.1,4.3-3.6,7.6-7.8,7.5c-4.2-0.1-7.6-3.7-7.5-7.9c0.1-4.3,3.5-7.5,7.8-7.5
		C1271,729.5,1274.2,732.9,1274.1,737.3z M1268.6,737.2c0.1-1.2-0.9-2.3-2.1-2.3c-1,0-2,0.8-2.2,1.8c-0.2,1.1,0.7,2.3,1.9,2.5
		C1267.3,739.4,1268.5,738.5,1268.6,737.2z"/>
	<path class="st1" d="M844,465.9c-4.2,0-7.7-3.5-7.6-7.7c0-3.7,3-7.7,7.7-7.6c4.4,0.1,7.6,3.3,7.6,7.7
		C851.6,462.6,848.3,465.9,844,465.9z M846.2,458c-0.1-1.2-1.2-2.1-2.4-1.9c-1,0.2-1.9,1.1-1.9,2.1c0,1.1,1.2,2.2,2.3,2.2
		C845.3,460.3,846.3,459.2,846.2,458z"/>
	<path class="st1" d="M988,913.6c-3.3,0-6.6,0-9.8,0c-0.9,0-1.8,0-2.7-0.2c-0.9-0.1-1.8-1.2-1.9-2.2c-0.1-1,0.6-2.2,1.5-2.5
		c0.7-0.2,1.4-0.4,2.2-0.4c7.3,0,14.6,0,21.9,0c0.3,0,0.6,0,0.9,0.1c1.5,0.2,2.5,1.3,2.6,2.6c0,1.3-1,2.5-2.6,2.6
		C996.1,913.6,992.1,913.6,988,913.6L988,913.6z"/>
	<path class="st1" d="M1020,879.7c3.3,0,6.5,0,9.8,0c1,0,2.1,0,3,0.6c0.9,0.5,1.5,1.6,1.4,2.6c-0.2,1.1-0.9,1.9-2,2.1
		c-0.6,0.1-1.2,0.1-1.8,0.1c-6.4-0.2-12.8-0.4-19.1-0.7c-1,0-2.1-0.2-3.1-0.4c-1.1-0.2-1.7-1.2-1.7-2.3s0.5-2,1.6-2.5
		c1-0.4,2-0.3,3.1-0.3c3,0.2,5.9,0.4,8.9,0.5C1020,879.5,1020,879.6,1020,879.7z"/>
	<path class="st1" d="M912.8,916.3c-3.1,0-5.4-2.4-5.3-5.5c0.1-2.8,2.4-5.1,5.2-5.2c2.9-0.1,5.5,2.4,5.5,5.3
		C918.2,914,915.8,916.3,912.8,916.3z"/>
	<path class="st1" d="M1161.1,517.2c0,3.1-2.3,5.4-5.3,5.3c-3,0-5.4-2.5-5.3-5.5c0.1-2.7,2.5-5.1,5.2-5.2
		C1158.7,511.8,1161.1,514.1,1161.1,517.2z"/>
	<path class="st1" d="M781.2,774.4c3,0,5.4,2.5,5.3,5.4c-0.1,2.7-2.4,5.1-5.2,5.2c-2.9,0.1-5.4-2.3-5.5-5.3
		C775.8,776.6,778,774.4,781.2,774.4z"/>
	<path class="st1" d="M1632.2,407c-2.6,0-4.5-2-4.4-4.6c0.1-2.3,2-4.2,4.3-4.3c2.4-0.1,4.6,2,4.6,4.4
		C1636.7,405.1,1634.8,407.1,1632.2,407z"/>
	<path class="st1" d="M591.4,1121.7c2.6,0,4.5,1.8,4.4,4.4c0,2.3-1.8,4.2-4.1,4.4c-2.4,0.2-4.6-1.8-4.7-4.3
		S588.9,1121.7,591.4,1121.7z"/>
	<path class="st1" d="M721,1188.8c2.6,0,4.5,2,4.4,4.5c-0.1,2.4-2.4,4.5-4.7,4.3s-4.1-2.1-4.2-4.4
		C716.5,1190.6,718.4,1188.7,721,1188.8z"/>
	<path class="st1" d="M1824.8,517.3c0.1,2.6-1.7,4.5-4.3,4.6c-2.5,0-4.6-2-4.5-4.4c0.1-2.2,1.9-4.2,4.2-4.4
		C1822.7,512.8,1824.8,514.7,1824.8,517.3z"/>
	<path class="st1" d="M485.4,255.3c0.1,2.7-1.7,4.5-4.4,4.5c-2.4,0-4.3-1.7-4.4-4c-0.2-2.4,1.8-4.6,4.2-4.8
		C483.3,250.8,485.4,252.8,485.4,255.3z"/>
	<path class="st1" d="M1477.5,650c-0.1,2.5-2.2,4.4-4.7,4.2s-4.3-2.3-4.1-4.8c0.2-2.3,2.1-4,4.5-4
		C1475.7,645.5,1477.6,647.5,1477.5,650z"/>
	<path class="st1" d="M563.3,552.2c-2.6,0-4.4-1.9-4.3-4.5c0.1-2.3,1.9-4.2,4.2-4.3c2.4-0.1,4.6,2,4.6,4.4
		C567.8,550.3,565.9,552.3,563.3,552.2z"/>
	<path class="st1" d="M788.6,306.8c0,2.2-1.8,3.9-4,3.8c-2-0.1-3.7-1.7-3.8-3.7s1.7-4,3.8-4.1C786.7,302.8,788.6,304.6,788.6,306.8z
		"/>
	<path class="st1" d="M740.7,199c0.1,2.1-1.7,4-3.8,4.1c-2,0.1-3.7-1.4-3.9-3.4c-0.2-2.2,1.3-4.1,3.5-4.3
		C738.5,195.1,740.6,196.9,740.7,199z"/>
	<path class="st3" d="M1487.6,944.4c-4-0.3-8.5-0.2-12.9-1c-0.4-0.1-0.9-0.1-1.3-0.1c-0.7,0-1.1,0.5-0.9,1.1
		c0.2,0.4,0.4,0.8,0.6,1.2c4,6.9,5.7,14.4,6.3,22.2c1.1,13.1-0.6,26-3.4,38.7c-4.5,20.6-11.8,40.1-20.8,59
		c-13.2,27.7-29.4,53.4-49.4,76.6c-8.4,9.8-17.4,18.9-27.4,27c-6.5,5.3-13.3,10.1-20.8,14c-6.5,3.4-13.3,6-20.7,7
		c-2.7,0.4-5.4,0.2-8.1,0.3c-0.8,0-1.3,0.7-0.9,1.5c0.5,1.1,1.1,2.1,1.6,3.2c3.7,7.3,6,15,6.7,23.1c0.4,5.3-0.2,10.4-1.5,15.5
		c-0.2,0.7-0.5,1.4-0.8,2.1c-0.5,1-1.6,1.4-2.7,1.2c-1.2-0.2-2.1-1.3-2.1-2.6c0-0.7,0.2-1.5,0.4-2.2c2.6-10.3,1.3-20.2-2.6-29.8
		c-1.6-3.9-3.5-7.6-5.8-11.1c-1.6-2.5-3.4-4.8-5.9-6.6c-4.8-3.6-7.8-8.6-9.8-14.2c-2.4-6.7-3.4-13.6-3.6-20.7
		c-0.3-12,1.4-23.8,4.1-35.5c4.9-21.7,12.9-42.2,22.8-62.1c13.3-26.8,29.4-51.7,49.2-74.2c9-10.2,18.7-19.7,29.6-28
		c6.4-4.9,13.2-9.3,20.6-12.7c6.2-2.8,12.5-4.9,19.3-5.2c5-0.2,9.8,0.4,14.4,2.6c1.2,0.6,2.5,0.9,3.8,1.3c10.4,2.6,21,3.3,31.6,2.4
		c5.8-0.5,11.5-1.8,16.9-4.2c5.3-2.3,9.9-5.5,13.7-9.9c0.7-0.8,1.4-1.6,2.1-2.3c0.8-0.7,2-0.7,2.9,0c1,0.7,1.5,2.1,0.9,3.2
		c-0.7,1.2-1.5,2.2-2.4,3.2c-6.3,7-14.2,11.2-23.3,13.6C1501.6,943.9,1494.8,944.4,1487.6,944.4z M1474.3,973.8
		c0-3.8-0.4-10.2-2.1-16.5c-1.1-3.9-2.7-7.6-5.1-10.9c-3-4.1-7-6.9-12-8.1c-3.8-1-7.7-0.9-11.6-0.2c-5.9,1.1-11.5,3.3-16.8,6.1
		c-7.3,3.8-14,8.5-20.4,13.8c-10.1,8.3-19.2,17.5-27.6,27.5c-21.6,25.5-38.8,53.7-52.2,84.3c-8.6,19.6-15.3,39.9-18.2,61.2
		c-1.3,9.2-1.8,18.4-0.4,27.7c0.8,5.2,2.1,10.2,4.7,14.9c2.5,4.6,6.1,8.2,11,10.1c3.8,1.5,7.8,2,11.9,1.4c4.6-0.6,9.1-1.9,13.3-3.7
		c6.1-2.6,11.8-5.9,17.2-9.6c11-7.6,20.7-16.7,29.7-26.5c19.6-21.2,35.5-45,48.8-70.5c10.3-19.8,18.8-40.3,24.4-62
		C1472.1,1000.8,1474.3,988.8,1474.3,973.8z"/>
	<path class="st3" d="M2057.5,979.8c18.5-0.3,34.7,15.3,34.6,34.8c-0.1,19-15.7,34.7-34.9,34.6c-19.3-0.2-34.6-15.5-34.6-34.9
		C2022.7,993.7,2040.1,979.2,2057.5,979.8z"/>
	<path class="st3" d="M2204,914.7c-8.2-0.2-16-2.1-23.7-4.4c-15.4-4.6-30-11.1-44.1-18.5c-32.3-16.9-62.2-37.4-88.6-62.7
		c-11.4-10.9-21.9-22.4-31.1-35.2c-4.5-6.3-8.7-12.9-12-19.9c-2.2-4.6-3.8-9.4-4.5-14.5c-0.3-2.6-0.1-5.1,0.6-7.5
		c0.3-1.1,1-2.2,1.6-3.2c0.7-1.1,2.1-1.4,3.2-0.9c1.1,0.4,1.7,1.8,1.5,3c-0.1,0.3-0.1,0.6-0.3,0.9c-2,3.9-1.3,7.8-0.3,11.8
		c1,3.8,2.6,7.3,4.3,10.8c3.8,7.5,8.5,14.4,13.6,21c12.1,15.7,25.9,29.7,41,42.5c28.1,23.8,58.9,43.4,92.5,58.4
		c11.1,4.9,22.4,9,34.3,11.6c4.8,1,9.7,1.7,14.7,1.5c3.7-0.2,7.1-0.8,9.8-3.7c0.2-0.2,0.4-0.4,0.7-0.5c1-0.5,2-0.5,2.9,0.2
		s1.1,1.7,0.8,2.8c-0.2,0.9-0.8,1.6-1.5,2.2c-2.6,2.5-5.8,3.6-9.3,4.1C2208.3,914.6,2206.1,914.6,2204,914.7z"/>
	<path class="st3" d="M1555.8,1082.3c10.1,0,18.1,8.1,18,18.3c-0.1,10.9-9.3,17.8-18.1,17.8c-9.8-0.1-18.1-8-18-18.3
		C1537.8,1090.1,1545.8,1082.2,1555.8,1082.3z"/>
	<path class="st3" d="M1870.3,885.4c0.1,14.6-12,27.3-27.4,27.3c-15.2,0-27.7-12.4-27.5-27.7s12.2-27.2,27.4-27.3
		C1859.2,857.6,1870.8,871.3,1870.3,885.4z M1820.8,885.3c-0.2,10.4,8.3,21.9,22,21.9c12.7,0.1,22.2-10.3,22.2-22.3
		c-0.1-12.2-10.2-21.9-22.1-21.9C1831.5,863,1820.7,872.5,1820.8,885.3z"/>
	<path class="st3" d="M1714.8,699.4c13.6,0.3,27.1,1.1,40.4,3.4c0.7,0.1,1.5,0.2,2.2,0.5c1.2,0.4,1.9,1.6,1.7,2.8
		c-0.1,1.2-1.1,2.2-2.4,2.2c-1.5,0-3-0.2-4.5-0.4c-12.1-2.1-24.3-2.9-36.6-2.9c-35.1-0.1-68.8,7.1-101.2,20.6
		c-1.5,0.6-3,1.3-4.6,1.9c-1.5,0.5-2.7,0-3.4-1.3c-0.6-1.2-0.2-2.6,1.2-3.4c0.8-0.5,1.6-0.8,2.4-1.1c19.2-8.2,39-14.2,59.5-17.9
		C1684.6,700.9,1699.7,699.7,1714.8,699.4z"/>
	<path class="st3" d="M1903.8,1036.4c0.6,13.7-10.7,27.7-27.5,27.7c-17.4-0.1-27.4-14.6-27.5-27.3c-0.1-12.2,9.1-27.4,27.6-27.7
		C1891.5,1008.8,1903.7,1021.2,1903.8,1036.4z M1898.3,1036.5c0.4-9.5-7.3-21.8-21.9-22c-12.2-0.2-22.2,10-22.3,22.2
		c0,9.7,7.3,21.9,22,22C1891.1,1058.7,1898.8,1046.3,1898.3,1036.5z"/>
	<path class="st3" d="M2214.9,882.9c-0.1,0.8-0.5,1.4-1.1,1.8c-1,0.6-2.1,0.5-3-0.1c-0.8-0.6-1.4-1.5-2.1-2.3
		c-4.2-4.9-8.3-9.8-12.6-14.6c-16.9-18.5-35.2-35.4-55.7-49.8c-13.6-9.6-27.9-17.9-43.5-23.9c-0.7-0.3-1.4-0.5-2-0.9
		c-1.3-0.7-1.8-2.2-1.2-3.4c0.5-1.1,1.6-1.8,3-1.5c1.2,0.3,2.3,0.7,3.4,1.2c11.5,4.6,22.5,10.4,33,17.1c18.8,11.9,35.7,26,51.6,41.5
		c9.7,9.5,19,19.5,27.6,30c0.8,0.9,1.5,1.9,2.2,2.8C2214.8,881.4,2215,882.1,2214.9,882.9z"/>
	<path class="st3" d="M1378.5,1196.4c-1.1-0.2-1.8-0.4-2.2-1.2c-0.6-1-0.5-2.1,0.2-3c0.6-0.8,1.5-1.4,2.3-2.1
		c7.4-6,14.6-12.4,21.5-19c17.6-16.9,33.7-35.2,47.2-55.6c7.7-11.6,14.4-23.8,19.5-36.7c0.4-1,0.8-1.9,1.3-2.8
		c0.6-1,2.1-1.3,3.2-0.9c0.9,0.4,1.7,1.5,1.5,2.5c-0.3,1.3-0.7,2.6-1.2,3.8c-3.5,8.8-7.7,17.2-12.4,25.3
		c-6.9,11.9-14.9,23.1-23.5,33.8c-15.3,18.9-32.4,36-51,51.6c-1.4,1.2-2.8,2.3-4.2,3.4C1379.8,1196.1,1379,1196.4,1378.5,1196.4z"/>
	<path class="st3" d="M1491.7,1206.1c-6,0-10.5-4.4-10.6-10.4c0-6,4.5-10.5,10.4-10.6c5.9,0,10.6,4.5,10.7,10.4
		C1502.3,1201.4,1497.6,1206.1,1491.7,1206.1z"/>
	<path class="st3" d="M1336.1,1161.4c0.9-7.6,2.1-14.7,3.7-21.7c13.5-58.7,41-109.9,82.7-153.5c4.8-5.1,10-9.8,15.1-14.7
		c0.9-0.8,1.8-1.6,2.8-2.2c1.1-0.7,2.5-0.3,3.2,0.6c0.8,0.9,0.8,2.3-0.1,3.3c-1,1.1-2.1,2.1-3.2,3.1c-27.4,25.1-49.6,54.1-66.8,87
		c-13.5,26-23.5,53.2-29.4,81.9c-1,4.7-1.6,9.4-2.3,14.1c-0.2,1.2-0.4,2.4-0.7,3.5c-0.3,1.1-1.2,1.7-2.3,1.7c-1.2,0-2.3-0.8-2.6-2
		C1336.1,1162,1336.1,1161.4,1336.1,1161.4z"/>
</g>
</svg>
